<svg width="26" height="24" viewBox="0 0 26 24" fill="none" xmlns="http://www.w3.org/2000/svg">
<mask id="path-1-inside-1_2784_13315" fill="white">
<path d="M0 0H25.9987V24H0V0Z"/>
</mask>
<path d="M1 24V0H-1V24H1Z" fill="#E0E0E0" mask="url(#path-1-inside-1_2784_13315)"/>
<path d="M25.7067 18.2968L22.6099 15.1988C24.9271 12.1022 24.2953 7.71356 21.1988 5.39641C18.1022 3.07926 13.7136 3.71107 11.3964 6.80759C9.07926 9.90411 9.71107 14.2928 12.8076 16.6099C15.295 18.4713 18.7113 18.4713 21.1988 16.6099L24.2968 19.708C24.6862 20.0973 25.3174 20.0973 25.7067 19.708C26.096 19.3187 26.096 18.6875 25.7067 18.2982L25.7067 18.2968ZM17.029 16.012C14.277 16.012 12.046 13.781 12.046 11.029C12.046 8.27695 14.277 6.04601 17.029 6.04601C19.781 6.04601 22.012 8.27695 22.012 11.029C22.009 13.7798 19.7798 16.009 17.029 16.012Z" fill="#049DD9"/>
</svg>
